<svg width="36" height="36" viewBox="0 0 36 36" version="1.1" xmlns="http://www.w3.org/2000/svg" xmlns:xlink="http://www.w3.org/1999/xlink">
	<title>Shape</title>
	<desc>Created using Figma</desc>
	<g id="Canvas" transform="translate(-1742 -166)">
		<g id="Shape">
			<use xlink:href="#alert" transform="translate(1742 166)" fill="#FF0000"/>
		</g>
	</g>
	<defs>
		<path id="alert" fill-rule="evenodd" d="M 25.46 0L 10.54 0L 0 10.54L 0 25.46L 10.54 36L 25.46 36L 36 25.46L 36 10.54L 25.46 0ZM 18 28.6C 16.56 28.6 15.4 27.44 15.4 26C 15.4 24.56 16.56 23.4 18 23.4C 19.44 23.4 20.6 24.56 20.6 26C 20.6 27.44 19.44 28.6 18 28.6ZM 20 20L 16 20L 16 8L 20 8L 20 20Z"/>
	</defs>
</svg>
