<svg width="24" height="80" viewBox="0 0 24 80" version="1.1" xmlns="http://www.w3.org/2000/svg" xmlns:xlink="http://www.w3.org/1999/xlink">
	<title>Shape Copy 2</title>
	<desc>Created using Figma</desc>
	<g id="Shape Copy 2">
		<use xlink:href="#water" fill="#FFBC20"/>
	</g>
	<defs>
		<path id="water" fill-rule="evenodd" d="M 20.49 8.48524L 12 0L 3.51 8.48524C 1.17 10.8281 0 13.9518 0 16.9555C 0 19.9591 1.17 23.1279 3.51 25.4707C 5.85 27.8136 8.925 29 12 29C 15.075 29 18.15 27.8136 20.49 25.4707C 22.83 23.1279 24 19.9591 24 16.9555C 24 13.9518 22.83 10.8281 20.49 8.48524ZM 3 17.4961C 3.015 14.4925 3.93 12.5852 5.64 10.8882L 12 4.38531L 18.36 10.9633C 20.07 12.6453 20.985 14.4925 21 17.4961L 3 17.4961Z"/>
	</defs>
</svg>
